{
	"asset":{
		"version":"2.0",
		"generator":"Maxon Cinema 4D 2025.2.1 (#200000219)",
		"copyright":""
	},
	"scenes":[{
		"nodes":[0]
	}],
	"nodes":[{
		"name":"Scene 0",
		"children":[1]
	},
	{
		"name":"Subdivisión Superficie",
		"children":[2]
	},
	{
		"scale":[1.0,
		1.0,
		1.0],
		"name":"Cilindro",
		"translation":[1.7455885410308838,
		1.1495765447616578,
		0.7278236150741577],
		"rotation":[0.0,
		0.0,
		0.0,
		-1.0],
		"children":[3,
		4,
		5]
	},
	{
		"name":"Cilindro-Mat",
		"mesh":0
	},
	{
		"name":"Cilindro-Mat",
		"mesh":1
	},
	{
		"name":"Cilindro-Mat",
		"mesh":2
	}],
	"meshes":[{
		"name":"Cilindro-Mat",
		"primitives":[{
			"attributes":{
				"POSITION":1,
				"NORMAL":2
			},
			"indices":0,
			"material":0
		}]
	},
	{
		"name":"Cilindro-Mat",
		"primitives":[{
			"attributes":{
				"POSITION":4,
				"NORMAL":5
			},
			"indices":3,
			"material":1
		}]
	},
	{
		"name":"Cilindro-Mat",
		"primitives":[{
			"attributes":{
				"POSITION":7,
				"NORMAL":8
			},
			"indices":6,
			"material":1
		}]
	}],
	"accessors":[{
		"bufferView":0,
		"type":"SCALAR",
		"byteOffset":0,
		"componentType":5123,
		"count":7680,
		"min":[0],
		"max":[7679]
	},
	{
		"bufferView":1,
		"type":"VEC3",
		"byteOffset":0,
		"componentType":5126,
		"count":7680,
		"min":[-2.048675298690796,
		-0.11160284280776978,
		-1.2279256582260132],
		"max":[0.6869041323661804,
		-0.09661256521940232,
		1.5076534748077393]
	},
	{
		"bufferView":1,
		"type":"VEC3",
		"byteOffset":12,
		"componentType":5126,
		"count":7680,
		"min":[-1.0,
		-0.8901031613349915,
		-1.0],
		"max":[1.0,
		0.9999997615814209,
		1.0]
	},
	{
		"bufferView":2,
		"type":"SCALAR",
		"byteOffset":0,
		"componentType":5123,
		"count":96,
		"min":[0],
		"max":[95]
	},
	{
		"bufferView":3,
		"type":"VEC3",
		"byteOffset":0,
		"componentType":5126,
		"count":96,
		"min":[-0.6319824457168579,
		-0.09797900915145874,
		0.2302251011133194],
		"max":[-0.18625830113887788,
		-0.09653326123952866,
		0.7861254811286926]
	},
	{
		"bufferView":3,
		"type":"VEC3",
		"byteOffset":12,
		"componentType":5126,
		"count":96,
		"min":[-0.005625328980386257,
		0.9999645352363586,
		-0.007625444792211056],
		"max":[0.00028125877724960446,
		1.0,
		0.0004062626394443214]
	},
	{
		"bufferView":4,
		"type":"SCALAR",
		"byteOffset":0,
		"componentType":5123,
		"count":1440,
		"min":[0],
		"max":[1439]
	},
	{
		"bufferView":5,
		"type":"VEC3",
		"byteOffset":0,
		"componentType":5126,
		"count":1440,
		"min":[-1.3803939819335938,
		-0.09797900915145874,
		-0.5596445202827454],
		"max":[0.018623001873493196,
		-0.09653326123952866,
		0.8393723964691162]
	},
	{
		"bufferView":5,
		"type":"VEC3",
		"byteOffset":12,
		"componentType":5126,
		"count":1440,
		"min":[-0.00843799114227295,
		0.9999642968177795,
		-0.00843799114227295],
		"max":[0.00843799114227295,
		1.0,
		0.00843799114227295]
	}],
	"bufferViews":[{
		"buffer":0,
		"byteOffset":0,
		"byteLength":15360,
		"target":34963
	},
	{
		"buffer":0,
		"byteOffset":15360,
		"byteLength":184320,
		"target":34962,
		"byteStride":24
	},
	{
		"buffer":1,
		"byteOffset":0,
		"byteLength":192,
		"target":34963
	},
	{
		"buffer":1,
		"byteOffset":192,
		"byteLength":2304,
		"target":34962,
		"byteStride":24
	},
	{
		"buffer":2,
		"byteOffset":0,
		"byteLength":2880,
		"target":34963
	},
	{
		"buffer":2,
		"byteOffset":2880,
		"byteLength":34560,
		"target":34962,
		"byteStride":24
	}],
	"buffers":[{
		"uri":"data:application/octet-stream;base64,",
		"byteLength":199680
	},
	{
		"uri":"data:application/octet-stream;base64,",
		"byteLength":2496
	},
	{
		"uri":"data:application/octet-stream;base64,",
		"byteLength":37440
	}],
	"materials":[{
		"pbrMetallicRoughness":{
			"baseColorFactor":[0.0,
			0.0,
			0.0,
			1.0],
			"metallicFactor":0.0,
			"roughnessFactor":0.20000000298023225
		},
		"emissiveFactor":[0.0,
		0.0,
		0.0],
		"alphaMode":"OPAQUE",
		"doubleSided":true,
		"name":"Mat"
	},
	{
		"pbrMetallicRoughness":{
			"baseColorFactor":[0.9624060150375936,
			0.3137254901960785,
			0.09411764705882354,
			1.0],
			"metallicFactor":0.0,
			"roughnessFactor":0.20000000298023225
		},
		"emissiveFactor":[0.0,
		0.0,
		0.0],
		"alphaMode":"OPAQUE",
		"doubleSided":true,
		"name":"Mat"
	}]
}